<svg xmlns="http://www.w3.org/2000/svg" viewBox="0 0 1600 900" role="img" aria-labelledby="title desc" shape-rendering="crispEdges">
  <title id="title">NeoCity command deck pixel art background</title>
  <desc id="desc">A flat pixel art command deck facing a futuristic city skyline.</desc>
  <rect width="1600" height="900" fill="#07111f"/>
  <rect y="0" width="1600" height="500" fill="#0a1830"/>
  <rect y="500" width="1600" height="400" fill="#0b1220"/>
  <rect x="0" y="0" width="1600" height="110" fill="#0f263d"/>
  <rect x="60" y="55" width="220" height="18" fill="#4ade80"/>
  <rect x="320" y="55" width="120" height="18" fill="#38bdf8"/>
  <rect x="1180" y="55" width="260" height="18" fill="#ff3b4f"/>
  <rect x="90" y="230" width="120" height="270" fill="#10243c"/>
  <rect x="250" y="160" width="170" height="340" fill="#132b46"/>
  <rect x="470" y="250" width="130" height="250" fill="#0f2239"/>
  <rect x="1000" y="210" width="150" height="290" fill="#10243c"/>
  <rect x="1190" y="150" width="180" height="350" fill="#132b46"/>
  <rect x="1410" y="260" width="120" height="240" fill="#0f2239"/>
  <g fill="#60a5fa">
    <rect x="120" y="270" width="28" height="28"/>
    <rect x="162" y="318" width="28" height="28"/>
    <rect x="286" y="205" width="28" height="28"/>
    <rect x="348" y="265" width="28" height="28"/>
    <rect x="518" y="310" width="28" height="28"/>
    <rect x="1045" y="260" width="28" height="28"/>
    <rect x="1260" y="208" width="28" height="28"/>
    <rect x="1320" y="310" width="28" height="28"/>
    <rect x="1454" y="322" width="28" height="28"/>
  </g>
  <g fill="#4ade80">
    <rect x="130" y="390" width="36" height="18"/>
    <rect x="305" y="390" width="36" height="18"/>
    <rect x="1080" y="382" width="36" height="18"/>
    <rect x="1235" y="405" width="36" height="18"/>
  </g>
  <rect x="0" y="500" width="1600" height="40" fill="#142338"/>
  <rect x="120" y="560" width="1360" height="220" fill="#101b2e"/>
  <rect x="160" y="590" width="1280" height="154" fill="#081527"/>
  <rect x="210" y="625" width="260" height="70" fill="#0f2d3f"/>
  <rect x="510" y="625" width="220" height="70" fill="#102a24"/>
  <rect x="770" y="625" width="220" height="70" fill="#2a131c"/>
  <rect x="1030" y="625" width="360" height="70" fill="#0f2d3f"/>
  <rect x="240" y="650" width="190" height="18" fill="#38bdf8"/>
  <rect x="540" y="650" width="150" height="18" fill="#4ade80"/>
  <rect x="800" y="650" width="150" height="18" fill="#ff3b4f"/>
  <rect x="1060" y="650" width="290" height="18" fill="#60a5fa"/>
  <rect x="0" y="780" width="1600" height="120" fill="#060b14"/>
  <rect x="0" y="820" width="1600" height="20" fill="#1f2d42"/>
  <rect x="160" y="820" width="120" height="20" fill="#4ade80"/>
  <rect x="520" y="820" width="160" height="20" fill="#38bdf8"/>
  <rect x="920" y="820" width="140" height="20" fill="#ff3b4f"/>
  <rect x="1240" y="820" width="200" height="20" fill="#4ade80"/>
</svg>
